<svg xmlns="http://www.w3.org/2000/svg" width="1600" height="1160" viewBox="0 0 1600 1160">
  <defs>
    <linearGradient id="bg" x1="0" y1="0" x2="1" y2="1">
      <stop offset="0%" stop-color="#f8fbff" />
      <stop offset="100%" stop-color="#eef4ff" />
    </linearGradient>
    <linearGradient id="header" x1="0" y1="0" x2="1" y2="0">
      <stop offset="0%" stop-color="#0b6bcb" />
      <stop offset="100%" stop-color="#00a6a6" />
    </linearGradient>
    <marker id="arrow" viewBox="0 0 10 10" refX="9" refY="5" markerWidth="8" markerHeight="8" orient="auto-start-reverse">
      <path d="M0,0 L10,5 L0,10 z" fill="#5d6880" />
    </marker>
    <style>
      .title { font: 700 34px 'Segoe UI', Arial, sans-serif; fill: #13243f; }
      .subtitle { font: 500 16px 'Segoe UI', Arial, sans-serif; fill: #3f4d66; }
      .label { font: 600 13px 'Segoe UI', Arial, sans-serif; fill: #4a5874; }
      .head { font: 700 20px 'Segoe UI', Arial, sans-serif; fill: #1a2f51; }
      .text { font: 500 14px 'Segoe UI', Arial, sans-serif; fill: #3f4f68; }
      .legend { font: 600 13px 'Segoe UI', Arial, sans-serif; fill: #3b4861; }
      .box { fill: #ffffff; stroke: #bccae0; stroke-width: 2; rx: 16; }
      .box-runtime { fill: #f7faff; stroke: #cdd9ec; stroke-width: 2; rx: 18; }
      .box-gray { fill: #f4f6fa; stroke: #c8d1df; stroke-width: 2; rx: 16; }
      .box-green { fill: #effdf7; stroke: #8dd9ba; stroke-width: 2; rx: 18; }
      .box-orange { fill: #fff7ef; stroke: #f2bf8a; stroke-width: 2; rx: 18; }
      .arrow { stroke: #5d6880; stroke-width: 2.2; fill: none; marker-end: url(#arrow); }
      .arrow-dash { stroke: #7b88a1; stroke-width: 2; fill: none; stroke-dasharray: 7 5; marker-end: url(#arrow); }
    </style>
  </defs>

  <rect x="0" y="0" width="1600" height="1160" fill="url(#bg)" />
  <rect x="40" y="30" width="1520" height="110" rx="22" fill="url(#header)" opacity="0.10" stroke="#8fc0e8" stroke-width="1.5" />

  <text x="70" y="78" class="title">Triggo.ai Snowflake Sink Connector - Arquitetura Atual</text>
  <text x="70" y="106" class="subtitle">Fluxo de parsing, ingestao e merge para Snowflake com suporte multi-formato</text>
  <image href="logo-triggo.svg" x="1310" y="52" width="220" height="56" />

  <rect x="100" y="180" width="1400" height="410" class="box-runtime" />
  <text x="130" y="212" class="label">Kafka Connect Runtime</text>

  <rect x="140" y="240" width="260" height="76" class="box-gray" />
  <text x="270" y="272" text-anchor="middle" class="head">Kafka Topic</text>
  <text x="270" y="295" text-anchor="middle" class="text">records CDC</text>

  <rect x="560" y="240" width="320" height="76" class="box" />
  <text x="720" y="272" text-anchor="middle" class="head">SnowflakeSinkTask</text>
  <text x="720" y="295" text-anchor="middle" class="text">buffer + flush + orquestracao</text>

  <rect x="960" y="240" width="380" height="76" class="box" />
  <text x="1150" y="272" text-anchor="middle" class="head">AutoParser</text>
  <text x="1150" y="295" text-anchor="middle" class="text">deteccao automatica do payload</text>

  <rect x="130" y="380" width="260" height="80" class="box" />
  <text x="260" y="414" text-anchor="middle" class="head">FlatJsonParser</text>
  <text x="260" y="437" text-anchor="middle" class="text">payload plano + pk.fields</text>

  <rect x="450" y="380" width="300" height="80" class="box" />
  <text x="600" y="414" text-anchor="middle" class="head">DebeziumJsonParser</text>
  <text x="600" y="437" text-anchor="middle" class="text">json com ou sem schema</text>

  <rect x="810" y="380" width="300" height="80" class="box" />
  <text x="960" y="414" text-anchor="middle" class="head">AvroParser</text>
  <text x="960" y="437" text-anchor="middle" class="text">normaliza logical types</text>

  <rect x="1170" y="380" width="300" height="80" class="box-gray" />
  <text x="1320" y="414" text-anchor="middle" class="head">ParsedRecord</text>
  <text x="1320" y="437" text-anchor="middle" class="text">fields + op + KFK_*</text>

  <path d="M400 278 L560 278" class="arrow" />
  <path d="M880 278 L960 278" class="arrow" />
  <path d="M1150 316 L260 380" class="arrow" />
  <path d="M1150 316 L600 380" class="arrow" />
  <path d="M1150 316 L960 380" class="arrow" />
  <path d="M1110 420 L1170 420" class="arrow" />

  <rect x="80" y="650" width="690" height="280" class="box-green" />
  <text x="115" y="686" class="head">Modo A - SNOWPIPE_STREAMING</text>

  <rect x="120" y="728" width="280" height="82" class="box" />
  <text x="260" y="762" text-anchor="middle" class="head">SnowpipeStreamingWriter</text>
  <text x="260" y="786" text-anchor="middle" class="text">insert direto em TABELA_INGEST</text>

  <rect x="430" y="728" width="300" height="82" class="box" />
  <text x="580" y="762" text-anchor="middle" class="head">InlineProcessor</text>
  <text x="580" y="786" text-anchor="middle" class="text">MERGE assincrono por lote</text>

  <text x="120" y="846" class="text">- job.interval.seconds define frequencia do MERGE</text>
  <text x="120" y="872" class="text">- merge.batch.size define volume por execucao</text>
  <text x="120" y="898" class="text">- ingest.cleanup.delay.seconds define retencao da _INGEST</text>

  <rect x="830" y="650" width="690" height="280" class="box-orange" />
  <text x="865" y="686" class="head">Modo B - STAGE</text>

  <rect x="870" y="728" width="300" height="82" class="box" />
  <text x="1020" y="762" text-anchor="middle" class="head">StageCopyWriter</text>
  <text x="1020" y="786" text-anchor="middle" class="text">upload JSON + COPY INTO _INGEST</text>

  <rect x="1200" y="728" width="280" height="82" class="box" />
  <text x="1340" y="762" text-anchor="middle" class="head">InlineProcessor</text>
  <text x="1340" y="786" text-anchor="middle" class="text">processBlock sincronico</text>

  <text x="870" y="846" class="text">- aplica c/r/u/d na tabela final durante o flush</text>
  <text x="870" y="872" class="text">- cleanup por blockId e por expiracao</text>
  <text x="870" y="898" class="text">- ingest.cleanup.delay.seconds controla retencao da _INGEST</text>

  <rect x="560" y="980" width="480" height="90" class="box-gray" />
  <text x="800" y="1018" text-anchor="middle" class="head">Snowflake</text>
  <text x="800" y="1043" text-anchor="middle" class="text">TABELA_INGEST -> MERGE -> TABELA_FINAL</text>

  <path d="M1320 460 L260 728" class="arrow" />
  <path d="M1320 460 L580 728" class="arrow" />
  <path d="M1320 460 L1020 728" class="arrow" />
  <path d="M1320 460 L1340 728" class="arrow" />

  <path d="M580 810 L730 980" class="arrow" />
  <path d="M1340 810 L900 980" class="arrow" />

  <path d="M800 980 L800 930" class="arrow-dash" />
  <text x="818" y="952" class="legend">cleanup controlado por ingest.cleanup.delay.seconds</text>

  <rect x="90" y="1112" width="18" height="10" fill="#ffffff" stroke="#7b88a1" stroke-width="1.5" />
  <text x="118" y="1122" class="legend">Componentes principais</text>
  <line x1="300" y1="1118" x2="350" y2="1118" class="arrow" />
  <text x="360" y="1122" class="legend">Fluxo de dados</text>
  <line x1="500" y1="1118" x2="550" y2="1118" class="arrow-dash" />
  <text x="560" y="1122" class="legend">Fluxo de cleanup</text>
</svg>
