<svg xmlns="http://www.w3.org/2000/svg" xmlns:xlink="http://www.w3.org/1999/xlink" width="1600" height="1160" viewBox="0 0 1600 1160">
  <defs>
    <linearGradient id="bg" x1="0" y1="0" x2="1" y2="1">
      <stop offset="0%" stop-color="#f8fbff" />
      <stop offset="100%" stop-color="#eef4ff" />
    </linearGradient>
    <linearGradient id="header" x1="0" y1="0" x2="1" y2="0">
      <stop offset="0%" stop-color="#0b6bcb" />
      <stop offset="100%" stop-color="#00a6a6" />
    </linearGradient>
    <marker id="arrow" viewBox="0 0 10 10" refX="9" refY="5" markerWidth="8" markerHeight="8" orient="auto-start-reverse">
      <path d="M0,0 L10,5 L0,10 z" fill="#5d6880" />
    </marker>
    <style>
      .title { font: 700 34px 'Segoe UI', Arial, sans-serif; fill: #13243f; }
      .subtitle { font: 500 16px 'Segoe UI', Arial, sans-serif; fill: #3f4d66; }
      .label { font: 600 13px 'Segoe UI', Arial, sans-serif; fill: #4a5874; }
      .head { font: 700 20px 'Segoe UI', Arial, sans-serif; fill: #1a2f51; }
      .text { font: 500 14px 'Segoe UI', Arial, sans-serif; fill: #3f4f68; }
      .legend { font: 600 13px 'Segoe UI', Arial, sans-serif; fill: #3b4861; }
      .box { fill: #ffffff; stroke: #bccae0; stroke-width: 2; rx: 16; }
      .box-runtime { fill: #f7faff; stroke: #cdd9ec; stroke-width: 2; rx: 18; }
      .box-gray { fill: #f4f6fa; stroke: #c8d1df; stroke-width: 2; rx: 16; }
      .box-green { fill: #effdf7; stroke: #8dd9ba; stroke-width: 2; rx: 18; }
      .box-orange { fill: #fff7ef; stroke: #f2bf8a; stroke-width: 2; rx: 18; }
      .arrow { stroke: #5d6880; stroke-width: 2.2; fill: none; marker-end: url(#arrow); }
      .arrow-dash { stroke: #7b88a1; stroke-width: 2; fill: none; stroke-dasharray: 7 5; marker-end: url(#arrow); }
    </style>
  </defs>

  <rect x="0" y="0" width="1600" height="1160" fill="url(#bg)" />
  <rect x="40" y="30" width="1520" height="110" rx="22" fill="url(#header)" opacity="0.10" stroke="#8fc0e8" stroke-width="1.5" />

  <text x="70" y="78" class="title">Triggo.ai Snowflake Sink Connector - Arquitetura Atual</text>
  <text x="70" y="106" class="subtitle">Fluxo de parsing, ingestao e merge para Snowflake com suporte multi-formato</text>
  <svg x="1310" y="52" width="220" height="56" viewBox="0 0 356.64 85.32" aria-label="Triggo.ai logo">
    <defs>
      <style>
        .trg-1 { fill: #f4f4f5; }
        .trg-2 { fill: #29b5e8; }
        .trg-3 { fill: #3d3d3c; }
        .trg-4 { fill: none; }
      </style>
    </defs>
    <g>
      <path class="trg-1" d="M78.56,29.42,93.18,14.8v7.86h11V29.6h-11v17a11.53,11.53,0,0,0,.91,4.75,6.64,6.64,0,0,0,2.74,2.74,12.7,12.7,0,0,0,3.29.91,23.75,23.75,0,0,0,4,.19v6.76c-6.39,0-10.78-1.1-14.07-3.47-2.92-2.38-4.56-6.4-4.56-12.06v-17Z"/>
      <path class="trg-1" d="M110.9,61.94V39.46c0-6.39,1.1-10.59,3.47-13a11.31,11.31,0,0,1,4.21-2.74,14.34,14.34,0,0,1,4.38-.91,36,36,0,0,1,4.93-.18h7.31l-3.1,6.94h-8a5.46,5.46,0,0,0-2.2.55,4.64,4.64,0,0,0-2.19,1.64c-.91,1.46-1.64,4-1.64,7.86V62.12l-7.13-.18Z"/>
      <path class="trg-1" d="M151.1,61.94h-7.31V29.42H137l3.29-7h10.59l.19,39.47Z"/>
      <path class="trg-1" d="M178,61.94a20.61,20.61,0,0,1-13.88-5.3,18.55,18.55,0,0,1-5.67-13.89,20.75,20.75,0,0,1,5.67-14.43c4-4,8.59-5.66,14.43-5.66h19.37V60.84A26.61,26.61,0,0,1,197,67.6a14.33,14.33,0,0,1-2.75,4.93,16.15,16.15,0,0,1-3.1,3.11A25.3,25.3,0,0,1,187.82,78c-3.29,1.83-7.49,2.56-12.42,2.56h-9.32V73.63h8.4c4.75,0,8.22-.55,10.23-1.83,3.66-2.19,5.49-5.48,5.49-10.23V29.42H178.32c-4,0-6.94,1.09-9.32,3.47s-3.29,5.48-3.29,9.68c0,3.65,1.1,6.94,3.47,9.14A12.21,12.21,0,0,0,177.59,55a15.82,15.82,0,0,0,9.5-2.92v7.31A18.44,18.44,0,0,1,178,61.94Z"/>
      <path class="trg-1" d="M223.08,61.94a20.59,20.59,0,0,1-13.88-5.3,18.55,18.55,0,0,1-5.67-13.89,20.75,20.75,0,0,1,5.67-14.43c4-4,8.58-5.66,14.43-5.66H243V60.84a26.17,26.17,0,0,1-.92,6.76,14.15,14.15,0,0,1-2.74,4.93,16.15,16.15,0,0,1-3.1,3.11A26,26,0,0,1,233,78c-3.29,1.83-7.49,2.56-12.43,2.56h-9.31V73.63h8.4c4.75,0,8.22-.55,10.23-1.83,3.66-2.19,5.48-5.48,5.48-10.23V29.42H223.45c-4,0-6.95,1.09-9.32,3.47s-3.29,5.48-3.29,9.68c0,3.65,1.1,6.94,3.47,9.14A12.21,12.21,0,0,0,222.72,55a15.82,15.82,0,0,0,9.5-2.92v7.31A17.94,17.94,0,0,1,223.08,61.94Z"/>
      <path class="trg-1" d="M254,27.59c3.65-4,8.59-5.85,14.43-5.85a19.52,19.52,0,0,1,7.86,1.65,18.9,18.9,0,0,1,6.39,4.38A20.78,20.78,0,0,1,287,34.35a19.86,19.86,0,0,1,1.64,8,20.54,20.54,0,0,1-1.64,8,20.45,20.45,0,0,1-4.2,6.57,22.16,22.16,0,0,1-6.4,4.39A19,19,0,0,1,268.58,63a19.83,19.83,0,0,1-8-1.64,19,19,0,0,1-6.4-4.39,20.28,20.28,0,0,1-4.2-6.57,19.73,19.73,0,0,1-1.64-8A19.25,19.25,0,0,1,254,27.59Zm14.25.91a12.27,12.27,0,0,0-9.32,3.66c-2.37,2.55-3.47,5.66-3.47,9.86s1.1,7.31,3.47,9.87,5.3,3.65,9.32,3.65,6.94-1.09,9.32-3.65,3.29-5.67,3.29-9.87a14.61,14.61,0,0,0-3.29-9.86A12.37,12.37,0,0,0,268.21,28.5Z"/>
      <path class="trg-2" d="M326.49,38.55V46a12,12,0,0,0-7.67-2.37c-2.56,0-4.57.54-5.85,1.64a4.79,4.79,0,0,0-2.19,4.39c0,3.47,2.74,5.29,8,5.29H329.6V39.46c0-6.76-3.11-9.86-9.68-9.86H306.76V22.47h13.52c5.3,0,9.5,1.46,12.24,4a14.85,14.85,0,0,1,4.39,11.15v24.3H318.64c-4.75,0-8.23-.92-11-3.11a10.94,10.94,0,0,1-4.2-9.13c0-4,1.46-7.13,4.39-9.14,2.92-2.19,6.57-3.11,10.78-3.11A32.39,32.39,0,0,1,326.49,38.55Z"/>
      <path class="trg-2" d="M356.64,61.94h-7.31V29.42h-6.76l3.29-7h10.6l.18,39.47Z"/>
      <polygon class="trg-1" points="151.1 19.91 140.5 19.91 146.89 9.5 151.1 9.5 151.1 19.91"/>
      <polygon class="trg-1" points="298.54 60.84 288.13 60.84 294.52 50.43 298.54 50.43 298.54 60.84"/>
      <polygon class="trg-2" points="356.64 19.91 346.04 19.91 352.25 9.5 356.64 9.5 356.64 19.91"/>
      <polygon class="trg-3" points="0.91 45.68 0.91 62.12 14.98 70.16 29.05 62.12 29.05 45.68 14.98 37.64 0.91 45.68"/>
      <path class="trg-1" d="M15,71.25,0,62.67V45.13l15-8.59,15,8.59V62.67ZM2,61.57l13,7.49,13-7.49V46.22l-13-7.3L2,46.22Z"/>
      <polyline class="trg-3" points="0.91 45.68 14.98 54.08 29.05 45.68"/>
      <polygon class="trg-1" points="14.98 55.18 0.55 46.77 1.46 44.95 14.98 52.8 28.5 44.95 29.41 46.77 14.98 55.18"/>
      <line class="trg-4" x1="14.98" y1="70.16" x2="14.98" y2="54.08"/>
      <rect class="trg-1" x="13.89" y="54.08" width="2.19" height="16.44"/>
      <polygon class="trg-3" points="44.03 45.68 44.03 62.12 58.1 70.16 71.99 62.12 71.99 45.68 58.1 37.64 44.03 45.68"/>
      <path class="trg-1" d="M58.1,71.25,42.75,62.67V45.13l15-8.59,15,8.59V62.67ZM45,61.57l13,7.49,13-7.49V46.22L58.1,38.92,45,46.22Z"/>
      <polyline class="trg-3" points="44.03 45.68 58.1 54.08 71.99 45.68"/>
      <polygon class="trg-1" points="58.1 55.18 43.48 46.77 44.4 44.95 58.1 52.8 71.44 44.95 72.53 46.77 58.1 55.18"/>
      <line class="trg-4" x1="58.1" y1="70.16" x2="58.1" y2="54.08"/>
      <rect class="trg-1" x="56.82" y="54.08" width="2.19" height="16.44"/>
      <polygon class="trg-3" points="22.47 9.13 22.47 25.4 36.54 33.44 50.79 25.4 50.79 9.13 36.54 0.91 22.47 9.13"/>
      <path class="trg-1" d="M36.54,34.71l-15-8.58V8.59L36.54,0l15,8.59V26.13Zm-13-9.86,13,7.49,13-7.49V9.68l-13-7.49-13,7.49Z"/>
      <polyline class="trg-3" points="22.47 9.13 36.72 17.36 50.79 9.13"/>
      <polygon class="trg-1" points="36.72 18.45 22.11 10.05 23.2 8.22 36.72 16.08 50.06 8.22 51.16 10.05 36.72 18.45"/>
      <line class="trg-4" x1="36.54" y1="33.43" x2="36.54" y2="17.36"/>
      <rect class="trg-1" x="35.63" y="17.36" width="2.19" height="16.44"/>
      <polygon class="trg-3" points="0.91 20.83 0.91 37.27 14.98 45.31 29.05 37.27 29.05 20.83 14.98 12.79 0.91 20.83"/>
      <path class="trg-1" d="M15,46.59,0,38V20.46l15-8.58,15,8.58V38ZM2,36.72l13,7.49,13-7.49V21.56L15,14.07,2,21.56Z"/>
      <polygon class="trg-1" points="14.98 30.33 0.55 21.93 1.46 20.1 14.98 27.95 28.5 20.1 29.41 21.93 14.98 30.33"/>
      <line class="trg-4" x1="14.98" y1="45.31" x2="14.98" y2="29.23"/>
      <rect class="trg-1" x="13.89" y="29.23" width="2.19" height="16.44"/>
      <polygon class="trg-3" points="44.03 20.83 44.03 37.27 58.1 45.31 71.99 37.27 71.99 20.83 58.1 12.79 44.03 20.83"/>
      <path class="trg-1" d="M58.1,46.59,42.94,38V20.46l15-8.58,15,8.58V38ZM45,36.72l13,7.49,13-7.49V21.56l-13-7.49L45,21.56Z"/>
      <polygon class="trg-1" points="58.1 30.33 43.48 21.93 44.4 20.1 58.1 27.95 71.44 20.1 72.53 21.93 58.1 30.33"/>
      <line class="trg-4" x1="58.1" y1="45.31" x2="58.1" y2="29.23"/>
      <rect class="trg-1" x="56.82" y="29.23" width="2.19" height="16.44"/>
      <polygon class="trg-3" points="22.47 59.74 22.47 76 36.54 84.23 50.79 76 50.79 59.74 36.54 51.7 22.47 59.74"/>
      <path class="trg-1" d="M36.54,85.32l-15-8.58V59.2l15-8.59,15,8.59V76.74Zm-13-9.86,13,7.49,13-7.49V60.29l-13-7.49-13,7.49Z"/>
      <polygon class="trg-1" points="36.72 69.25 22.11 60.66 23.2 59.01 36.72 66.87 50.06 59.01 51.16 60.66 36.72 69.25"/>
      <line class="trg-4" x1="36.54" y1="84.23" x2="36.54" y2="67.97"/>
      <rect class="trg-1" x="35.63" y="67.97" width="2.19" height="16.44"/>
      <polygon class="trg-3" points="22.47 33.44 22.47 49.88 36.54 57.92 50.79 49.88 50.79 33.44 36.54 25.4 22.47 33.44"/>
      <path class="trg-1" d="M36.54,59.2l-15-8.59V33.07l15-8.59,15,8.59V50.61Zm-13-9.87,13,7.49,13-7.49V34.17l-13-7.5-13,7.5Z"/>
      <polygon class="trg-1" points="36.72 42.94 22.11 34.53 23.2 32.7 36.72 40.56 50.06 32.7 51.16 34.53 36.72 42.94"/>
      <line class="trg-4" x1="36.54" y1="57.92" x2="36.54" y2="41.84"/>
      <rect class="trg-1" x="35.63" y="41.84" width="2.19" height="16.44"/>
    </g>
  </svg>

  <rect x="100" y="180" width="1400" height="410" class="box-runtime" />
  <text x="130" y="212" class="label">Kafka Connect Runtime</text>

  <rect x="140" y="240" width="260" height="76" class="box-gray" />
  <text x="270" y="272" text-anchor="middle" class="head">Kafka Topic</text>
  <text x="270" y="295" text-anchor="middle" class="text">records CDC</text>

  <rect x="560" y="240" width="320" height="76" class="box" />
  <text x="720" y="272" text-anchor="middle" class="head">SnowflakeSinkTask</text>
  <text x="720" y="295" text-anchor="middle" class="text">buffer + flush + orquestracao</text>

  <rect x="960" y="240" width="380" height="76" class="box" />
  <text x="1150" y="272" text-anchor="middle" class="head">AutoParser</text>
  <text x="1150" y="295" text-anchor="middle" class="text">deteccao automatica do payload</text>

  <rect x="130" y="380" width="260" height="80" class="box" />
  <text x="260" y="414" text-anchor="middle" class="head">FlatJsonParser</text>
  <text x="260" y="437" text-anchor="middle" class="text">payload plano + pk.fields</text>

  <rect x="450" y="380" width="300" height="80" class="box" />
  <text x="600" y="414" text-anchor="middle" class="head">DebeziumJsonParser</text>
  <text x="600" y="437" text-anchor="middle" class="text">json com ou sem schema</text>

  <rect x="810" y="380" width="300" height="80" class="box" />
  <text x="960" y="414" text-anchor="middle" class="head">AvroParser</text>
  <text x="960" y="437" text-anchor="middle" class="text">normaliza logical types</text>

  <rect x="1170" y="380" width="300" height="80" class="box-gray" />
  <text x="1320" y="414" text-anchor="middle" class="head">ParsedRecord</text>
  <text x="1320" y="437" text-anchor="middle" class="text">fields + op + KFK_*</text>

  <path d="M400 278 L560 278" class="arrow" />
  <path d="M880 278 L960 278" class="arrow" />
  <path d="M1150 316 L260 380" class="arrow" />
  <path d="M1150 316 L600 380" class="arrow" />
  <path d="M1150 316 L960 380" class="arrow" />
  <path d="M1110 420 L1170 420" class="arrow" />

  <rect x="80" y="650" width="690" height="280" class="box-green" />
  <text x="115" y="686" class="head">Modo A - SNOWPIPE_STREAMING</text>

  <rect x="120" y="728" width="280" height="82" class="box" />
  <text x="260" y="762" text-anchor="middle" class="head">SnowpipeStreamingWriter</text>
  <text x="260" y="786" text-anchor="middle" class="text">insert direto em TABELA_INGEST</text>

  <rect x="430" y="728" width="300" height="82" class="box" />
  <text x="580" y="762" text-anchor="middle" class="head">InlineProcessor</text>
  <text x="580" y="786" text-anchor="middle" class="text">MERGE assincrono por lote</text>

  <text x="120" y="846" class="text">- job.interval.seconds define frequencia do MERGE</text>
  <text x="120" y="872" class="text">- merge.batch.size define volume por execucao</text>
  <text x="120" y="898" class="text">- ingest.cleanup.delay.seconds define retencao da _INGEST</text>

  <rect x="830" y="650" width="690" height="280" class="box-orange" />
  <text x="865" y="686" class="head">Modo B - STAGE</text>

  <rect x="870" y="728" width="300" height="82" class="box" />
  <text x="1020" y="762" text-anchor="middle" class="head">StageCopyWriter</text>
  <text x="1020" y="786" text-anchor="middle" class="text">upload JSON + COPY INTO _INGEST</text>

  <rect x="1200" y="728" width="280" height="82" class="box" />
  <text x="1340" y="762" text-anchor="middle" class="head">InlineProcessor</text>
  <text x="1340" y="786" text-anchor="middle" class="text">processBlock sincronico</text>

  <text x="870" y="846" class="text">- aplica c/r/u/d na tabela final durante o flush</text>
  <text x="870" y="872" class="text">- cleanup por blockId e por expiracao</text>
  <text x="870" y="898" class="text">- ingest.cleanup.delay.seconds controla retencao da _INGEST</text>

  <rect x="500" y="962" width="600" height="128" class="box-gray" />
  <text x="800" y="992" text-anchor="middle" class="head">Snowflake</text>

  <rect x="540" y="1012" width="220" height="58" class="box" />
  <text x="650" y="1045" text-anchor="middle" class="text">TABELA_INGEST</text>

  <rect x="840" y="1012" width="220" height="58" class="box" />
  <text x="950" y="1045" text-anchor="middle" class="text">TABELA_FINAL</text>

  <path d="M760 1041 L840 1041" class="arrow" />
  <text x="800" y="1029" text-anchor="middle" class="label">MERGE</text>

  <path d="M950 1070 L950 1086 L650 1086 L650 1070" class="arrow-dash" />
  <text x="800" y="1102" text-anchor="middle" class="legend">cleanup da _INGEST apos processamento</text>

  <path d="M1320 460 L260 728" class="arrow" />
  <path d="M1320 460 L580 728" class="arrow" />
  <path d="M1320 460 L1020 728" class="arrow" />
  <path d="M1320 460 L1340 728" class="arrow" />

  <path d="M580 810 L690 1012" class="arrow" />
  <path d="M1340 810 L980 1012" class="arrow" />

  <rect x="90" y="1112" width="18" height="10" fill="#ffffff" stroke="#7b88a1" stroke-width="1.5" />
  <text x="118" y="1122" class="legend">Componentes principais</text>
  <line x1="300" y1="1118" x2="350" y2="1118" class="arrow" />
  <text x="360" y="1122" class="legend">Fluxo de dados</text>
  <line x1="500" y1="1118" x2="550" y2="1118" class="arrow-dash" />
  <text x="560" y="1122" class="legend">Fluxo de cleanup (direcional)</text>
</svg>
